<svg width="567" height="294" viewBox="0 0 567 294" fill="none" xmlns="http://www.w3.org/2000/svg">
<path d="M384.169 270.039C385.088 269.598 393.283 266.878 393.577 267.283C393.761 267.54 392.144 276.029 391.886 276.286C391.813 276.397 386.006 271.766 384.169 270.039ZM429.665 84.1943C429.665 84.1575 427.865 80.7397 427.093 78.9758C427.056 78.8655 426.983 78.5715 426.946 78.3878C426.909 78.2408 426.836 78.1305 426.725 78.057C426.615 77.9835 426.505 78.0203 426.431 78.0938L421.617 82.614C421.544 82.6875 421.507 82.7978 421.47 82.908C421.47 83.0183 421.47 83.1653 421.544 83.2755C421.58 83.3123 422.058 84.1943 422.315 84.5985C423.197 85.9583 424.704 89.0452 424.704 89.082C424.778 89.1922 424.851 89.2658 424.961 89.3025C425.072 89.3025 425.145 89.2657 425.219 89.1922C425.219 89.1922 425.88 88.2735 426.211 87.8693C426.762 87.2813 427.313 86.6932 427.901 86.142C428.342 85.701 428.489 85.6275 428.673 85.554C428.857 85.4438 429.077 85.3702 429.592 84.8557C429.739 84.672 429.776 84.378 429.665 84.1943ZM-8.87249 283.085C-8.87249 282.828 -9.05624 282.644 -9.31349 282.644C-9.35024 282.644 -9.42374 282.644 -9.46049 282.681C-10.0485 282.754 -14.7157 282.718 -17.619 282.681C-17.7292 282.681 -17.8395 282.718 -17.9497 282.828C-18.0232 282.901 -18.0967 283.012 -18.0967 283.159C-18.0967 283.232 -18.0967 284.959 -18.06 285.327L-17.913 290.325C-17.913 290.435 -17.8395 290.545 -17.766 290.656C-17.6925 290.729 -17.5822 290.766 -17.472 290.766H-17.4352C-14.7525 290.509 -12.033 290.435 -9.35024 290.545C-9.23999 290.545 -9.09299 290.509 -9.01949 290.435C-8.94599 290.362 -8.87249 290.215 -8.87249 290.104C-8.90924 287.863 -8.90924 285.253 -8.87249 283.085Z" fill="black" fill-opacity="0.16"/>
<path d="M41.8793 140.899C42.357 139.981 47.1345 132.814 47.6123 132.961C47.9063 133.072 51.8385 140.752 51.8385 141.083C51.8018 141.193 44.3783 141.12 41.8793 140.899ZM198.177 261.586C198.14 261.55 195.715 258.573 194.612 256.993C194.539 256.882 194.429 256.625 194.355 256.441C194.282 256.294 194.208 256.184 194.098 256.147C193.988 256.111 193.877 256.147 193.804 256.258L189.945 261.66C189.872 261.733 189.872 261.844 189.872 261.991C189.872 262.101 189.945 262.248 190.019 262.321C190.055 262.358 190.68 263.13 191.048 263.461C192.187 264.6 194.282 267.319 194.318 267.356C194.392 267.466 194.502 267.503 194.612 267.503C194.723 267.503 194.796 267.43 194.833 267.319C194.833 267.319 195.274 266.29 195.568 265.813C195.972 265.114 196.413 264.453 196.854 263.791C197.185 263.277 197.332 263.167 197.479 263.056C197.663 262.909 197.846 262.799 198.251 262.174C198.361 262.064 198.324 261.77 198.177 261.586ZM246.356 66.1132C246.577 66.1867 246.834 66.0397 246.871 65.8192C246.871 65.7825 246.871 65.7457 246.871 65.6722C246.944 65.1577 247.9 61.0417 248.525 58.506C248.561 58.3957 248.525 58.2855 248.451 58.212C248.378 58.1017 248.267 58.065 248.157 58.0282C248.084 58.0282 246.43 57.624 246.062 57.5505L241.138 56.5582C241.028 56.5215 240.881 56.5582 240.807 56.6317C240.734 56.7052 240.66 56.7787 240.623 56.8522V56.889C240.329 59.2777 239.815 61.7032 239.19 64.0185C239.153 64.1287 239.19 64.239 239.264 64.3492C239.337 64.4595 239.447 64.4962 239.558 64.533C241.689 65.0107 244.225 65.5987 246.356 66.1132ZM246.724 65.4517C246.687 65.415 246.65 65.3782 246.577 65.3782C246.65 65.3782 246.687 65.415 246.724 65.4517Z" fill="black" fill-opacity="0.16"/>
<path d="M236.103 173.717C235.552 173.717 235.074 173.423 234.817 172.872C234.523 172.174 234.817 171.329 235.515 171.035C236.875 170.447 238.014 169.307 238.602 167.911C239.19 166.514 239.227 164.934 238.675 163.538C238.565 163.207 238.381 162.876 238.234 162.509C237.94 161.884 237.573 161.149 237.389 160.34C237.058 158.834 237.316 157.18 238.124 155.636C238.749 154.497 239.631 153.395 240.917 152.292C241.505 151.778 242.387 151.851 242.865 152.439C243.379 153.027 243.306 153.909 242.718 154.387C241.689 155.306 240.991 156.114 240.55 156.959C240.035 157.915 239.851 158.907 240.072 159.752C240.182 160.267 240.439 160.781 240.697 161.333C240.88 161.737 241.064 162.141 241.248 162.545C242.02 164.603 241.983 166.955 241.138 169.013C240.292 171.035 238.639 172.725 236.617 173.607C236.47 173.681 236.287 173.717 236.103 173.717ZM251.097 154.865C251.648 154.791 252.199 155.048 252.493 155.563C252.898 156.224 252.64 157.106 251.979 157.511C250.619 158.282 249.627 159.569 249.186 161.002C248.745 162.472 248.892 164.089 249.59 165.449C249.737 165.779 249.958 166.073 250.178 166.441C250.546 167.066 250.987 167.727 251.281 168.536C251.795 170.006 251.722 171.733 251.06 173.387C250.546 174.636 249.774 175.812 248.561 177.098C248.01 177.686 247.128 177.723 246.54 177.172C245.952 176.657 245.915 175.739 246.466 175.187C247.422 174.158 248.047 173.24 248.414 172.358C248.818 171.329 248.892 170.3 248.598 169.454C248.414 168.977 248.12 168.462 247.79 167.948C247.569 167.58 247.312 167.176 247.091 166.772C246.062 164.787 245.842 162.398 246.466 160.23C247.128 158.062 248.598 156.188 250.582 155.085C250.729 154.938 250.913 154.865 251.097 154.865ZM75.0278 217.156C77.1225 219.655 78.3353 222.926 78.4823 225.388C78.666 228.071 77.6003 231.415 74.7338 232.885C73.6313 233.436 72.2715 233.693 70.6178 233.693C67.7145 233.657 65.877 232.628 64.9583 230.606C64.1865 228.879 64.113 226.417 65.6198 224.763C66.7958 223.477 68.4863 223.256 69.7358 224.175C70.1768 224.506 70.287 225.167 69.9563 225.608C69.6255 226.049 68.964 226.16 68.523 225.829C67.8615 225.351 67.2 226.049 67.1265 226.123C66.2445 227.078 66.3548 228.695 66.8325 229.761C67.3838 231.011 68.5598 231.599 70.6545 231.635C71.9775 231.635 73.0065 231.452 73.815 231.047C75.5423 230.165 76.6448 227.887 76.461 225.535C76.2773 222.852 74.5133 218.846 71.6835 216.752C70.14 215.612 68.5598 215.245 66.9428 215.612C65.8035 215.87 64.6643 216.494 63.378 217.45C60.9525 219.324 59.0783 221.786 58.1595 224.432C57.1673 227.262 57.3878 230.239 58.8578 233.216C59.115 233.73 58.8945 234.355 58.38 234.575C57.8655 234.833 57.2408 234.612 57.0203 234.098C55.3298 230.643 55.0358 227.042 56.2118 223.734C57.2775 220.721 59.3723 217.891 62.1285 215.796C63.6353 214.657 65.0685 213.922 66.465 213.591C68.67 213.077 70.875 213.591 72.8963 215.061C73.668 215.686 74.403 216.384 75.0278 217.156Z" fill="black" fill-opacity="0.16"/>
<path d="M351.535 59.1675C352.976 59.1675 354.144 57.9993 354.144 56.5583C354.144 55.1172 352.976 53.949 351.535 53.949C350.094 53.949 348.926 55.1172 348.926 56.5583C348.926 57.9993 350.094 59.1675 351.535 59.1675Z" fill="black" fill-opacity="0.16"/>
<path d="M355.43 51.156C356.871 51.156 358.039 49.9878 358.039 48.5468C358.039 47.1057 356.871 45.9375 355.43 45.9375C353.989 45.9375 352.821 47.1057 352.821 48.5468C352.821 49.9878 353.989 51.156 355.43 51.156Z" fill="black" fill-opacity="0.16"/>
<path d="M360.208 57.33C361.649 57.33 362.817 56.1618 362.817 54.7208C362.817 53.2797 361.649 52.1115 360.208 52.1115C358.767 52.1115 357.598 53.2797 357.598 54.7208C357.598 56.1618 358.767 57.33 360.208 57.33Z" fill="black" fill-opacity="0.16"/>
<path d="M533.447 109.221C531.683 107.237 529.883 105.252 528.008 103.268C530.066 101.21 532.087 99.0412 533.741 96.579C534.182 95.9542 533.999 95.0723 533.374 94.668C532.749 94.227 531.867 94.4108 531.463 95.0355C529.919 97.314 528.119 99.2985 526.134 101.246C524.37 99.4088 522.569 97.5713 520.732 95.7705C520.181 95.2193 519.299 95.2193 518.784 95.7705C518.233 96.3218 518.233 97.2038 518.784 97.7183C520.585 99.4823 522.349 101.32 524.113 103.157C523.709 103.562 523.268 103.966 522.827 104.333C521.32 105.73 519.74 107.2 518.27 108.743C517.755 109.295 517.755 110.14 518.27 110.691C518.821 111.206 519.703 111.206 520.217 110.654C521.65 109.184 523.194 107.751 524.664 106.354C525.105 105.95 525.509 105.546 525.95 105.142C527.751 107.09 529.552 109.037 531.316 110.985C531.353 111.022 531.353 111.022 531.389 111.059C531.904 111.573 532.749 111.61 533.3 111.132C533.925 110.691 533.962 109.809 533.447 109.221ZM99.393 91.3605L99.246 90.405C98.6948 86.3258 98.4375 81.879 98.4008 76.8075C98.4008 74.7863 98.4008 72.5813 98.4743 70.0088C98.4743 69.7515 98.4743 69.4575 98.4743 69.1635C98.4743 67.326 98.4743 65.0475 99.9075 64.2023C100.716 63.7245 101.782 63.8348 103.031 64.533C105.126 65.6723 107.882 67.7303 109.463 70.0088C111.484 72.8753 112.145 76.2195 111.3 79.4535C110.124 83.9738 105.788 90.846 100.275 91.2503L99.393 91.3605ZM101.047 65.856C100.973 65.856 100.937 65.856 100.9 65.8928C100.863 65.9295 100.643 66.0765 100.496 66.885C100.385 67.5833 100.385 68.4285 100.385 69.2003C100.385 69.4943 100.385 69.825 100.385 70.0823C100.312 72.618 100.312 74.7863 100.312 76.8075C100.349 81.4013 100.569 85.4438 101.047 89.1923C105.089 88.2 108.544 82.5405 109.499 78.9757C110.198 76.3298 109.646 73.5368 107.956 71.148C106.523 69.1268 103.95 67.2525 102.113 66.2603C101.598 65.9663 101.231 65.856 101.047 65.856ZM168.74 22.344C168.704 22.344 168.667 22.344 168.593 22.3073C167.711 22.05 167.123 21.9765 166.131 22.05C165.874 22.05 165.653 21.8663 165.617 21.609C165.617 21.3518 165.8 21.1313 166.058 21.0945C167.197 21.021 167.858 21.0945 168.851 21.3885C169.108 21.462 169.255 21.7193 169.181 21.9765C169.108 22.197 168.924 22.344 168.74 22.344ZM164.992 25.9088C164.808 25.9088 164.624 25.7985 164.551 25.6148C164.257 24.843 164.11 24.0345 164.073 23.1893C164.073 22.932 164.257 22.7115 164.514 22.7115C164.771 22.7115 164.992 22.8953 164.992 23.1525C165.029 23.8875 165.176 24.5858 165.396 25.284C165.47 25.5413 165.359 25.7985 165.102 25.872C165.102 25.9088 165.029 25.9088 164.992 25.9088ZM160.582 23.667C160.435 23.667 160.288 23.5935 160.214 23.4833C160.067 23.2628 160.104 22.9688 160.288 22.8218C160.949 22.3073 161.648 21.8663 162.419 21.4988C162.64 21.3885 162.934 21.4988 163.044 21.7193C163.154 21.9398 163.044 22.2338 162.824 22.344C162.125 22.6748 161.464 23.079 160.876 23.5568C160.802 23.6303 160.692 23.667 160.582 23.667ZM162.934 20.3228C162.75 20.3228 162.603 20.2125 162.493 20.0655C162.309 19.698 162.052 19.3673 161.611 18.816C161.501 18.669 161.354 18.4853 161.207 18.3015C161.06 18.081 161.096 17.787 161.28 17.64C161.501 17.493 161.795 17.5298 161.942 17.7135C162.089 17.8973 162.236 18.081 162.346 18.228C162.824 18.816 163.118 19.1835 163.338 19.6613C163.448 19.8818 163.338 20.1758 163.118 20.286C163.081 20.3228 163.007 20.3228 162.934 20.3228ZM165.212 20.2125C165.102 20.2125 165.029 20.1758 164.918 20.139C164.698 19.992 164.661 19.698 164.808 19.4775C165.249 18.8528 165.653 18.228 166.021 17.5665C166.131 17.346 166.425 17.2358 166.646 17.3828C166.866 17.493 166.976 17.787 166.829 18.0075C166.462 18.7058 166.021 19.404 165.543 20.0655C165.47 20.139 165.359 20.2125 165.212 20.2125ZM357.268 140.679C357.231 140.679 357.194 140.679 357.121 140.642C356.239 140.385 355.651 140.312 354.659 140.385C354.401 140.385 354.181 140.201 354.144 139.944C354.144 139.687 354.328 139.466 354.585 139.43C355.724 139.356 356.386 139.43 357.378 139.724C357.635 139.797 357.782 140.054 357.709 140.312C357.635 140.532 357.452 140.679 357.268 140.679ZM353.519 144.244C353.335 144.244 353.152 144.134 353.078 143.95C352.784 143.178 352.637 142.37 352.6 141.524C352.6 141.267 352.784 141.047 353.042 141.047C353.299 141.047 353.519 141.23 353.519 141.488C353.556 142.223 353.703 142.921 353.924 143.619C353.997 143.876 353.887 144.134 353.63 144.207C353.63 144.244 353.556 144.244 353.519 144.244ZM349.109 142.002C348.962 142.002 348.815 141.929 348.742 141.818C348.595 141.598 348.632 141.304 348.815 141.157C349.477 140.642 350.175 140.201 350.947 139.834C351.167 139.724 351.461 139.834 351.572 140.054C351.682 140.275 351.572 140.569 351.351 140.679C350.653 141.01 349.991 141.414 349.403 141.892C349.33 141.965 349.219 142.002 349.109 142.002ZM351.461 138.658C351.277 138.658 351.131 138.548 351.02 138.401C350.837 138.033 350.579 137.702 350.138 137.151C350.028 137.004 349.881 136.82 349.734 136.637C349.587 136.416 349.624 136.122 349.808 135.975C350.028 135.828 350.322 135.865 350.469 136.049C350.616 136.232 350.763 136.416 350.873 136.563C351.351 137.151 351.645 137.519 351.865 137.996C351.976 138.217 351.866 138.511 351.645 138.621C351.608 138.658 351.535 138.658 351.461 138.658ZM353.74 138.548C353.63 138.548 353.556 138.511 353.446 138.474C353.225 138.327 353.188 138.033 353.335 137.813C353.776 137.188 354.181 136.563 354.548 135.902C354.659 135.681 354.952 135.571 355.173 135.718C355.393 135.828 355.504 136.122 355.357 136.343C354.989 137.041 354.548 137.739 354.07 138.401C353.997 138.474 353.887 138.548 353.74 138.548ZM467.665 210.725C467.15 210.725 466.599 210.651 466.011 210.467C462.924 209.475 459.91 205.8 459.139 203.117C458.992 202.603 458.882 202.051 458.808 201.5C455.831 202.713 453.112 205.396 453.148 209.218C453.148 209.769 452.708 210.21 452.156 210.247C451.605 210.247 451.164 209.806 451.164 209.255C451.127 206.792 452.046 204.514 453.737 202.64C455.06 201.17 456.824 200.03 458.771 199.405C458.955 197.017 459.911 194.665 461.491 193.011C464.063 190.292 468.179 189.74 471.523 189.299L471.781 189.262C472.332 189.189 472.846 189.593 472.92 190.108C472.993 190.659 472.589 191.174 472.075 191.247L471.818 191.284C468.657 191.725 465.056 192.203 462.997 194.371C461.895 195.547 461.16 197.201 460.903 198.928C463.806 198.56 467.408 199.406 469.833 201.023C471.413 202.088 472.442 203.889 472.479 205.69C472.553 207.27 471.854 208.74 470.568 209.769C469.686 210.357 468.73 210.725 467.665 210.725ZM460.793 200.912C460.829 201.464 460.94 202.015 461.087 202.529C461.711 204.661 464.284 207.748 466.636 208.52C467.665 208.85 468.51 208.703 469.282 208.115C470.274 207.343 470.458 206.351 470.421 205.69C470.384 204.514 469.686 203.338 468.657 202.64C466.562 201.206 463.255 200.508 460.793 200.912Z" fill="black" fill-opacity="0.16"/>
</svg>
