<svg width="26" height="26" viewBox="0 0 26 26" fill="none" xmlns="http://www.w3.org/2000/svg">
<g clip-path="url(#clip0)">
<path d="M13 0.541656C5.8175 0.541656 -3.8147e-06 6.26166 -3.8147e-06 13.3163C-3.8147e-06 18.9616 3.7245 23.7488 8.88875 25.4367C9.53875 25.5569 9.77708 25.1615 9.77708 24.8224C9.77708 24.5191 9.76625 23.7152 9.76083 22.6503C6.14466 23.4206 5.382 20.9365 5.382 20.9365C4.7905 19.4621 3.93575 19.0677 3.93575 19.0677C2.75816 18.2758 4.02675 18.2921 4.02675 18.2921C5.33216 18.3809 6.01791 19.6083 6.01791 19.6083C7.17708 21.5616 9.061 20.9972 9.80416 20.6711C9.92116 19.8445 10.2559 19.2822 10.6275 18.9627C7.74041 18.6431 4.706 17.5446 4.706 12.6501C4.706 11.2558 5.20975 10.1162 6.04391 9.22241C5.89766 8.89957 5.45891 7.60066 6.15766 5.84132C6.15766 5.84132 7.24641 5.49899 9.73266 7.15107C10.7727 6.86724 11.8777 6.72641 12.9827 6.71991C14.0877 6.72641 15.1927 6.86724 16.2327 7.15107C18.7027 5.49899 19.7914 5.84132 19.7914 5.84132C20.4902 7.60066 20.0514 8.89957 19.9214 9.22241C20.7502 10.1162 21.2539 11.2558 21.2539 12.6501C21.2539 17.5576 18.2152 18.6377 15.3227 18.9518C15.7777 19.3353 16.2002 20.1186 16.2002 21.3157C16.2002 23.0252 16.1839 24.3988 16.1839 24.8137C16.1839 25.1485 16.4114 25.5482 17.0777 25.4204C22.2787 23.7434 26 18.9529 26 13.3163C26 6.26166 20.1792 0.541656 13 0.541656Z" fill="white"/>
</g>
<defs>
<clipPath id="clip0">
<rect width="26" height="26" fill="white"/>
</clipPath>
</defs>
</svg>
