<svg width="23" height="23" viewBox="0 0 23 23" fill="none" xmlns="http://www.w3.org/2000/svg">
<g clip-path="url(#clip0)">
<path d="M22.9943 23V22.9991H23V14.5638C23 10.4372 22.1116 7.25842 17.2874 7.25842C14.9682 7.25842 13.4119 8.53109 12.7765 9.73763H12.7094V7.64367H8.13528V22.9991H12.8982V15.3956C12.8982 13.3937 13.2777 11.4578 15.7569 11.4578C18.1997 11.4578 18.2361 13.7425 18.2361 15.5241V23H22.9943Z" fill="white"/>
<path d="M0.379501 7.64462H5.14817V23H0.379501V7.64462Z" fill="white"/>
<path d="M2.76192 0C1.23721 0 0 1.23721 0 2.76192C0 4.28663 1.23721 5.54971 2.76192 5.54971C4.28662 5.54971 5.52383 4.28663 5.52383 2.76192C5.52287 1.23721 4.28567 0 2.76192 0V0Z" fill="white"/>
</g>
<defs>
<clipPath id="clip0">
<rect width="23" height="23" fill="white"/>
</clipPath>
</defs>
</svg>
